<mxfile host="app.diagrams.net" modified="2022-02-13T19:51:24.351Z" agent="5.0 (Windows NT 10.0; Win64; x64) AppleWebKit/537.36 (KHTML, like Gecko) Chrome/98.0.4758.82 Safari/537.36" etag="6AY46ZGW4KA0eeKQ5m0L" version="16.5.6" type="github">
  <diagram id="bvy_eG0-Dj0skfsHbrSw" name="Page-1">
    <mxGraphModel dx="1422" dy="762" grid="1" gridSize="10" guides="1" tooltips="1" connect="1" arrows="1" fold="1" page="1" pageScale="1" pageWidth="1169" pageHeight="827" math="0" shadow="0">
      <root>
        <mxCell id="0" />
        <mxCell id="1" parent="0" />
        <mxCell id="Qv8Gig_lNZ5WpE_LXsZh-9" value="" style="ellipse;whiteSpace=wrap;html=1;aspect=fixed;fillColor=#b1ddf0;strokeColor=#10739e;perimeterSpacing=0;" parent="1" vertex="1">
          <mxGeometry x="280.5" y="120.5" width="599" height="599" as="geometry" />
        </mxCell>
        <mxCell id="Qv8Gig_lNZ5WpE_LXsZh-7" value="" style="ellipse;whiteSpace=wrap;html=1;aspect=fixed;fillColor=#ffe6cc;strokeColor=#d79b00;" parent="1" vertex="1">
          <mxGeometry x="360" y="200" width="440" height="440" as="geometry" />
        </mxCell>
        <mxCell id="Qv8Gig_lNZ5WpE_LXsZh-4" value="" style="ellipse;whiteSpace=wrap;html=1;aspect=fixed;fillColor=#d5e8d4;strokeColor=#82b366;" parent="1" vertex="1">
          <mxGeometry x="440" y="280" width="280" height="280" as="geometry" />
        </mxCell>
        <mxCell id="Qv8Gig_lNZ5WpE_LXsZh-1" value="" style="ellipse;whiteSpace=wrap;html=1;aspect=fixed;fontStyle=1;fillColor=#f8cecc;strokeColor=#b85450;" parent="1" vertex="1">
          <mxGeometry x="520" y="360" width="120" height="120" as="geometry" />
        </mxCell>
        <mxCell id="Qv8Gig_lNZ5WpE_LXsZh-5" value="Application.DataAccess" style="text;html=1;strokeColor=none;fillColor=none;align=center;verticalAlign=middle;whiteSpace=wrap;rounded=0;fontStyle=1" parent="1" vertex="1">
          <mxGeometry x="502.5" y="310" width="155" height="30" as="geometry" />
        </mxCell>
        <mxCell id="Qv8Gig_lNZ5WpE_LXsZh-6" value="Core" style="text;html=1;strokeColor=none;fillColor=none;align=center;verticalAlign=middle;whiteSpace=wrap;rounded=0;fontStyle=1" parent="1" vertex="1">
          <mxGeometry x="550" y="405" width="60" height="30" as="geometry" />
        </mxCell>
        <mxCell id="Qv8Gig_lNZ5WpE_LXsZh-8" value="Application.Services" style="text;html=1;strokeColor=none;fillColor=none;align=center;verticalAlign=middle;whiteSpace=wrap;rounded=0;fontStyle=1" parent="1" vertex="1">
          <mxGeometry x="507" y="220" width="155" height="30" as="geometry" />
        </mxCell>
        <mxCell id="Qv8Gig_lNZ5WpE_LXsZh-10" value="WebApi" style="text;html=1;strokeColor=none;fillColor=none;align=center;verticalAlign=middle;whiteSpace=wrap;rounded=0;fontStyle=1" parent="1" vertex="1">
          <mxGeometry x="502.5" y="130" width="155" height="30" as="geometry" />
        </mxCell>
        <mxCell id="Qv8Gig_lNZ5WpE_LXsZh-11" value="Infrastructure" style="text;html=1;strokeColor=none;fillColor=none;align=center;verticalAlign=middle;whiteSpace=wrap;rounded=0;fontStyle=1" parent="1" vertex="1">
          <mxGeometry x="507" y="680" width="155" height="30" as="geometry" />
        </mxCell>
        <mxCell id="ZmFiKksefc2pnNTn0l7y-2" value="" style="endArrow=none;html=1;rounded=0;fillColor=#dae8fc;strokeColor=#6c8ebf;strokeWidth=1;" edge="1" parent="1">
          <mxGeometry width="50" height="50" relative="1" as="geometry">
            <mxPoint x="800" y="440" as="sourcePoint" />
            <mxPoint x="880" y="440" as="targetPoint" />
          </mxGeometry>
        </mxCell>
        <mxCell id="ZmFiKksefc2pnNTn0l7y-3" value="" style="endArrow=none;html=1;rounded=0;fillColor=#dae8fc;strokeColor=#6c8ebf;strokeWidth=1;" edge="1" parent="1">
          <mxGeometry width="50" height="50" relative="1" as="geometry">
            <mxPoint x="280" y="440" as="sourcePoint" />
            <mxPoint x="360" y="440" as="targetPoint" />
          </mxGeometry>
        </mxCell>
      </root>
    </mxGraphModel>
  </diagram>
</mxfile>
